<?xml version="1.0" encoding="iso-8859-1"?>
<!-- Generator: Adobe Illustrator 19.0.0, SVG Export Plug-In . SVG Version: 6.00 Build 0)  -->
<svg version="1.1" id="Capa_1" xmlns="http://www.w3.org/2000/svg" xmlns:xlink="http://www.w3.org/1999/xlink" x="0px" y="0px"
	 viewBox="0 0 480.098 480.098" style="enable-background:new 0 0 480.098 480.098;" xml:space="preserve">
<g>
	<g>
		<path d="M414.901,122.477c-7.522-43.538-48.915-72.734-92.452-65.212c-11.366-30.529-38.678-52.274-70.978-56.509
			c-48.154-6.314-92.308,27.604-98.622,75.757c-7.96-2.924-16.375-4.419-24.855-4.416c-39.765,0.015-71.988,32.263-71.973,72.027
			c0.015,39.764,32.263,71.988,72.027,71.973h208c4.572,0.001,9.136-0.39,13.641-1.168
			C393.227,207.407,422.424,166.015,414.901,122.477z M336.049,200.098h-208c-30.928,0-56-25.072-56-56c0-30.928,25.072-56,56-56
			c9.839-0.043,19.509,2.557,28,7.528c2.522,1.348,5.572,1.248,8-0.264c2.502-1.564,4.016-4.313,4-7.264
			c-0.004-32.328,21.539-60.696,52.682-69.37c38.306-10.669,78.009,11.735,88.678,50.042c0.001,0.004,0.002,0.007,0.003,0.011
			c1.173,4.26,5.577,6.762,9.837,5.589c5.473-1.507,11.124-2.271,16.8-2.272c35.346,0,64,28.654,64,64
			C400.049,171.444,371.395,200.098,336.049,200.098z"/>
	</g>
</g>
<g>
	<g>
		<path d="M72.049,384.098h-48c-13.255,0-24,10.745-24,24v48c0,13.255,10.745,24,24,24h48c13.255,0,24-10.745,24-24v-48
			C96.049,394.843,85.304,384.098,72.049,384.098z M80.049,456.098c0,4.418-3.582,8-8,8h-48c-4.418,0-8-3.582-8-8v-48
			c0-4.418,3.582-8,8-8h48c4.418,0,8,3.582,8,8V456.098z"/>
	</g>
</g>
<g>
	<g>
		<path d="M200.049,384.098h-48c-13.255,0-24,10.745-24,24v48c0,13.255,10.745,24,24,24h48c13.255,0,24-10.745,24-24v-48
			C224.049,394.843,213.304,384.098,200.049,384.098z M208.049,456.098c0,4.418-3.582,8-8,8h-48c-4.418,0-8-3.582-8-8v-48
			c0-4.418,3.582-8,8-8h48c4.418,0,8,3.582,8,8V456.098z"/>
	</g>
</g>
<g>
	<g>
		<path d="M328.049,384.098h-48c-13.255,0-24,10.745-24,24v48c0,13.255,10.745,24,24,24h48c13.255,0,24-10.745,24-24v-48
			C352.049,394.843,341.304,384.098,328.049,384.098z M336.049,456.098c0,4.418-3.582,8-8,8h-48c-4.418,0-8-3.582-8-8v-48
			c0-4.418,3.582-8,8-8h48c4.418,0,8,3.582,8,8V456.098z"/>
	</g>
</g>
<g>
	<g>
		<path d="M456.049,384.098h-48c-13.255,0-24,10.745-24,24v48c0,13.255,10.745,24,24,24h48c13.255,0,24-10.745,24-24v-48
			C480.049,394.843,469.304,384.098,456.049,384.098z M464.049,456.098c0,4.418-3.582,8-8,8h-48c-4.418,0-8-3.582-8-8v-48
			c0-4.418,3.582-8,8-8h48c4.418,0,8,3.582,8,8V456.098z"/>
	</g>
</g>
<g>
	<g>
		<path d="M432.049,320.098h-184v-80c0-4.418-3.582-8-8-8s-8,3.582-8,8v80h-184c-4.418,0-8,3.582-8,8v32c0,4.418,3.582,8,8,8
			s8-3.582,8-8v-24h104v24c0,4.418,3.582,8,8,8s8-3.582,8-8v-24h120v24c0,4.418,3.582,8,8,8s8-3.582,8-8v-24h112v24
			c0,4.418,3.582,8,8,8s8-3.582,8-8v-32C440.049,323.679,436.467,320.098,432.049,320.098z"/>
	</g>
</g>
<g>
</g>
<g>
</g>
<g>
</g>
<g>
</g>
<g>
</g>
<g>
</g>
<g>
</g>
<g>
</g>
<g>
</g>
<g>
</g>
<g>
</g>
<g>
</g>
<g>
</g>
<g>
</g>
<g>
</g>
</svg>
