<?xml version="1.0" encoding="utf-8"?>
<!-- Generator: Adobe Illustrator 17.0.0, SVG Export Plug-In . SVG Version: 6.00 Build 0)  -->
<!DOCTYPE svg PUBLIC "-//W3C//DTD SVG 1.1//EN" "http://www.w3.org/Graphics/SVG/1.1/DTD/svg11.dtd">
<svg version="1.1" id="Layer_1" xmlns="http://www.w3.org/2000/svg" xmlns:xlink="http://www.w3.org/1999/xlink" x="0px" y="0px"
	 width="146px" height="57px" viewBox="0 0 146 57" enable-background="new 0 0 146 57" xml:space="preserve">
<g>
	<g>
		<path fill="#FFCB05" d="M21.738,13.741c0,0,3.018-1.291,3.021-4.84c0.001-3.154-3.016-4.843-3.016-4.843s-3.02,1.499-3.021,4.841
			C18.72,12.493,21.738,13.741,21.738,13.741z"/>
		<path fill="#ED1C24" d="M22.674,20.231c0,0,3.578,1.114,6.208-1.966c2.338-2.739,0.968-6.44,0.968-6.44s-3.732-0.936-6.209,1.966
			C20.976,16.912,22.674,20.231,22.674,20.231z"/>
		<path fill="#39B54A" d="M8.588,10.129c0,0-1.594,5.118,2.812,8.88c3.917,3.344,9.212,1.384,9.212,1.384s1.337-5.338-2.813-8.882
			C13.335,7.701,8.588,10.129,8.588,10.129z"/>
		<path fill="#D1D3D4" d="M13.251,5.407c0,0-0.583,1.871,1.027,3.245c1.432,1.222,3.366,0.506,3.366,0.506s0.489-1.951-1.027-3.245
			C14.985,4.521,13.251,5.407,13.251,5.407z"/>
		<path fill="#0072BC" d="M18.306,0.55c0,0-1.581,0.701-1.558,2.569c0.021,1.661,1.621,2.531,1.621,2.531s1.58-0.809,1.558-2.569
			C19.903,1.187,18.306,0.55,18.306,0.55z"/>
	</g>
	<g>
		<g>
			<g>
				<g>
					<path   style="fill:#fff;" d="M5.626,34.698c0,0.931,0.178,1.815,0.535,2.652c0.357,0.837,0.845,1.567,1.466,2.187
						c0.62,0.619,1.349,1.109,2.186,1.465c0.837,0.357,1.743,0.545,2.653,0.536c0.453,1.269,1.721,3.423,3.35,4.613
						c-2.929,0.74-6.421-0.077-7.817-0.681c-1.395-0.607-2.621-1.42-3.675-2.443c-1.055-1.024-1.9-2.235-2.535-3.63
						c-0.636-1.396-0.97-2.885-1-4.467V17.699l4.838-4.885v10.301H16.65c-2.03,1.659-3.302,3.005-4.279,4.838
						c-2.799,0-6.746,0-6.746,0v6.141V34.698z"/>
				</g>
			</g>
			<g>
				<g>
					<path  style="fill:#fff;" d="M36.656,51.621l-4.838,4.838v-21.62v-0.092c0-0.932-0.178-1.808-0.535-2.631c-0.357-0.82-0.838-1.54-1.442-2.162
						c-0.604-0.621-1.326-1.108-2.163-1.465c-0.838-0.357-1.722-0.535-2.653-0.535c-0.93,0-1.814,0.178-2.651,0.535
						c-0.837,0.357-1.566,0.844-2.187,1.465c-0.621,0.622-1.109,1.342-1.466,2.162c-0.357,0.823-0.535,1.699-0.535,2.631
						c0,0.96,0.178,1.86,0.535,2.698c0.357,0.837,0.844,1.567,1.466,2.186c0.62,0.621,1.349,1.11,2.187,1.467
						c0.837,0.355,1.722,0.483,2.651,0.534c0.897,0.049,2.896-0.228,3.611-0.702v4.968c-0.435,0.156-1.711,0.402-2.191,0.433
						c-0.481,0.031-0.954,0.047-1.42,0.047c-1.488,0-2.9-0.264-4.233-0.792c-1.334-0.526-2.521-1.255-3.559-2.186
						c-1.04-0.931-1.893-2.016-2.56-3.256c-0.667-1.241-1.077-2.574-1.233-4.001c-0.062-0.217-0.092-0.442-0.092-0.676
						c0-0.232,0-0.472,0-0.72c0-1.582,0.302-3.087,0.907-4.514c0.605-1.427,1.435-2.666,2.49-3.722
						c1.054-1.054,2.295-1.891,3.721-2.513c1.427-0.619,2.947-0.929,4.559-0.929c1.613,0,3.125,0.31,4.536,0.929
						c1.411,0.622,2.644,1.46,3.699,2.514c1.054,1.055,1.884,2.295,2.489,3.721c0.605,1.427,0.907,2.931,0.907,4.514v0.092
						L36.656,51.621z"/>
				</g>
			</g>
		</g>
	</g>
	<g>
		<linearGradient id="SVGID_1_" gradientUnits="userSpaceOnUse" x1="44.8109" y1="25.1693" x2="44.8109" y2="47.3832">
			<stop  offset="0" style="stop-color:#C7A137"/>
			<stop  offset="0.1818" style="stop-color:#F5D144"/>
			<stop  offset="1" style="stop-color:#C7A137"/>
		</linearGradient>
		<path fill="url(#SVGID_1_)" d="M41.475,35.685c0,1.167,0.224,2.266,0.672,3.298c0.448,1.032,1.051,1.927,1.812,2.687
			c0.759,0.76,1.655,1.364,2.687,1.812c1.031,0.448,2.13,0.672,3.298,0.672v1.791c-1.385,0.055-2.701-0.197-3.95-0.753
			c-1.249-0.556-2.348-1.309-3.298-2.26c-0.951-0.95-1.705-2.049-2.26-3.298c-0.557-1.247-0.808-2.565-0.754-3.949V17.646
			l1.792-1.792v9.691h8.47v1.792h-8.47V35.685z"/>
		<linearGradient id="SVGID_2_" gradientUnits="userSpaceOnUse" x1="61.1221" y1="25.1693" x2="61.1221" y2="47.3835">
			<stop  offset="0" style="stop-color:#C7A137"/>
			<stop  offset="0.1818" style="stop-color:#F5D144"/>
			<stop  offset="1" style="stop-color:#C7A137"/>
		</linearGradient>
		<path fill="url(#SVGID_2_)" d="M70.588,39.736c-0.516,1.236-1.262,2.342-2.239,3.318c-0.951,0.978-2.05,1.724-3.298,2.24
			c-1.249,0.516-2.565,0.774-3.95,0.774c-0.218,0-0.428-0.008-0.632-0.021c-0.203-0.014-0.414-0.034-0.631-0.062
			c-1.277-0.162-2.457-0.542-3.542-1.139c-1.086-0.597-2.03-1.35-2.83-2.26c-0.801-0.909-1.432-1.948-1.893-3.115
			c-0.462-1.167-0.691-2.388-0.691-3.665c0-1.385,0.257-2.694,0.773-3.929c0.515-1.235,1.248-2.341,2.198-3.318
			c0.978-0.95,2.083-1.69,3.319-2.219c1.235-0.53,2.545-0.795,3.929-0.795c1.384,0,2.7,0.265,3.95,0.795
			c1.248,0.529,2.347,1.269,3.298,2.219l1.262,1.263l-7.045,7.043l-2.483-0.041l7.004-7.003c-0.788-0.788-1.69-1.398-2.709-1.834
			c-1.018-0.433-2.111-0.651-3.277-0.651c-1.168,0-2.259,0.224-3.278,0.673c-1.018,0.448-1.908,1.058-2.668,1.831
			c-0.76,0.774-1.364,1.671-1.811,2.689c-0.448,1.017-0.672,2.11-0.672,3.277c0,1.086,0.19,2.105,0.569,3.054
			c0.38,0.951,0.903,1.799,1.568,2.545c0.665,0.747,1.446,1.363,2.342,1.853c0.896,0.488,1.859,0.801,2.891,0.936
			c0.19,0.028,0.367,0.048,0.53,0.062c0.163,0.014,0.339,0.021,0.529,0.021c1.166,0,2.266-0.225,3.298-0.672
			c1.031-0.448,1.927-1.052,2.687-1.812c0.759-0.76,1.364-1.656,1.811-2.687c0.448-1.031,0.671-2.131,0.671-3.299h1.792
			C71.362,37.192,71.104,38.501,70.588,39.736z"/>
		<linearGradient id="SVGID_3_" gradientUnits="userSpaceOnUse" x1="81.6841" y1="25.1693" x2="81.6841" y2="47.3835">
			<stop  offset="0" style="stop-color:#C7A137"/>
			<stop  offset="0.1818" style="stop-color:#F5D144"/>
			<stop  offset="1" style="stop-color:#C7A137"/>
		</linearGradient>
		<path fill="url(#SVGID_3_)" d="M90.418,43.054c-0.95,0.978-2.05,1.724-3.298,2.24c-1.249,0.516-2.567,0.774-3.95,0.774
			c-1.385,0-2.701-0.271-3.949-0.815c-1.249-0.542-2.336-1.282-3.258-2.219c-0.923-0.937-1.657-2.022-2.198-3.258
			c-0.544-1.235-0.815-2.558-0.815-3.97c0-1.385,0.271-2.7,0.815-3.949c0.542-1.248,1.276-2.341,2.198-3.278
			c0.922-0.936,2.009-1.676,3.258-2.218c1.249-0.543,2.564-0.815,3.949-0.815c1.383,0,2.701,0.265,3.95,0.795
			c1.248,0.529,2.347,1.269,3.298,2.219l-1.222,1.303c-0.788-0.788-1.69-1.405-2.708-1.853c-1.018-0.449-2.124-0.673-3.318-0.673
			c-1.168,0-2.26,0.224-3.279,0.673c-1.017,0.448-1.906,1.058-2.666,1.831c-0.761,0.774-1.364,1.671-1.812,2.689
			c-0.447,1.017-0.672,2.11-0.672,3.277c0,1.168,0.225,2.267,0.672,3.299c0.448,1.031,1.051,1.927,1.812,2.687
			c0.76,0.76,1.649,1.364,2.666,1.812c1.019,0.448,2.111,0.672,3.279,0.672c1.14,0,2.198-0.204,3.175-0.611
			c0.978-0.407,1.847-0.963,2.606-1.669L90.418,43.054z"/>
		<linearGradient id="SVGID_4_" gradientUnits="userSpaceOnUse" x1="101.0855" y1="25.1694" x2="101.0855" y2="47.3831">
			<stop  offset="0" style="stop-color:#C7A137"/>
			<stop  offset="0.1818" style="stop-color:#F5D144"/>
			<stop  offset="1" style="stop-color:#C7A137"/>
		</linearGradient>
		<path fill="url(#SVGID_4_)" d="M101.086,46.108c-1.412,0.054-2.735-0.196-3.971-0.754c-1.234-0.555-2.32-1.309-3.256-2.259
			c-0.937-0.95-1.677-2.056-2.219-3.318c-0.543-1.262-0.815-2.572-0.815-3.929c0-1.384,0.271-2.701,0.815-3.95
			c0.542-1.249,1.282-2.341,2.219-3.278c0.936-0.936,2.022-1.676,3.256-2.219c1.236-0.543,2.559-0.814,3.971-0.814
			c1.385,0,2.7,0.272,3.948,0.814c1.249,0.543,2.342,1.282,3.279,2.219c0.937,0.937,1.676,2.029,2.219,3.278
			c0.543,1.248,0.814,2.565,0.814,3.95c0,1.357-0.271,2.667-0.814,3.929c-0.542,1.262-1.281,2.369-2.219,3.318
			c-0.936,0.95-2.03,1.704-3.279,2.259C103.786,45.912,102.47,46.162,101.086,46.108z M101.086,27.378
			c-1.167,0-2.267,0.224-3.298,0.672c-1.032,0.448-1.927,1.053-2.687,1.813c-0.761,0.76-1.365,1.656-1.813,2.687
			c-0.447,1.032-0.671,2.132-0.671,3.299c0,1.167,0.224,2.267,0.671,3.298c0.448,1.032,1.052,1.928,1.813,2.688
			c0.76,0.76,1.655,1.364,2.687,1.812c1.031,0.448,2.131,0.671,3.298,0.671c1.167,0,2.26-0.223,3.278-0.671
			c1.018-0.448,1.914-1.052,2.687-1.812c0.773-0.76,1.383-1.656,1.831-2.688c0.448-1.031,0.672-2.131,0.672-3.298
			c0-1.166-0.225-2.267-0.672-3.299c-0.448-1.031-1.058-1.927-1.831-2.687c-0.774-0.76-1.669-1.365-2.687-1.813
			C103.346,27.602,102.252,27.378,101.086,27.378z"/>
		<linearGradient id="SVGID_5_" gradientUnits="userSpaceOnUse" x1="129.6698" y1="25.1694" x2="129.6698" y2="47.3832">
			<stop  offset="0" style="stop-color:#C7A137"/>
			<stop  offset="0.1818" style="stop-color:#F5D144"/>
			<stop  offset="1" style="stop-color:#C7A137"/>
		</linearGradient>
		<path fill="url(#SVGID_5_)" d="M145.876,45.986h-1.792V35.847c0-1.166-0.218-2.273-0.651-3.318
			c-0.434-1.046-1.031-1.962-1.792-2.749c-0.76-0.787-1.656-1.411-2.688-1.872c-1.031-0.461-2.13-0.692-3.297-0.692h-0.041h-0.042
			c-0.841,0-1.647,0.122-2.421,0.366c-0.774,0.245-1.487,0.584-2.137,1.018l-1.344,1.099l-1.344-1.099
			c-0.651-0.434-1.358-0.773-2.117-1.018c-0.76-0.244-1.561-0.366-2.402-0.366h-0.081h-0.041c-1.167,0-2.26,0.231-3.278,0.692
			c-1.018,0.462-1.906,1.086-2.667,1.872c-0.759,0.788-1.363,1.704-1.811,2.749c-0.448,1.045-0.672,2.152-0.672,3.318v10.138h-1.791
			V35.847c0.027-1.384,0.299-2.694,0.814-3.929c0.516-1.235,1.248-2.342,2.199-3.319c0.95-0.949,2.036-1.683,3.258-2.198
			c1.222-0.516,2.51-0.787,3.868-0.814h0.123h0.039h0.123c1.031,0.027,2.041,0.196,3.032,0.509c0.992,0.312,1.907,0.781,2.75,1.405
			c1.737-1.222,3.677-1.859,5.822-1.914h0.08h0.042h0.041h0.081c1.357,0.027,2.646,0.299,3.869,0.814
			c1.221,0.515,2.306,1.249,3.256,2.198c0.977,0.977,1.724,2.083,2.24,3.319c0.515,1.236,0.774,2.545,0.774,3.929V45.986z"/>
	</g>
	<g>
		<g>
			<path fill="#D1D3D4" d="M41.968,48.639h-1.025v2.672h-0.626v-2.672h-1.03V48.09h2.681V48.639z"/>
			<path fill="#D1D3D4" d="M45.879,50.763v0.549h-2.237V48.09h2.196v0.549h-1.57v0.776h1.357v0.508h-1.357v0.839H45.879z"/>
			<path fill="#D1D3D4" d="M47.462,49.678c0-0.196,0.035-0.391,0.104-0.583c0.07-0.192,0.17-0.364,0.302-0.515
				c0.132-0.151,0.293-0.274,0.483-0.368c0.19-0.094,0.408-0.14,0.653-0.14c0.287,0,0.536,0.065,0.746,0.195
				c0.21,0.13,0.365,0.3,0.465,0.508l-0.481,0.331c-0.036-0.091-0.083-0.167-0.141-0.229c-0.058-0.062-0.12-0.111-0.188-0.148
				c-0.068-0.036-0.138-0.063-0.211-0.079c-0.073-0.017-0.142-0.025-0.209-0.025c-0.148,0-0.278,0.032-0.39,0.095
				c-0.112,0.064-0.205,0.146-0.279,0.247c-0.074,0.102-0.13,0.216-0.168,0.345c-0.038,0.129-0.057,0.257-0.057,0.383
				c0,0.142,0.022,0.279,0.066,0.411c0.044,0.131,0.106,0.247,0.186,0.347c0.08,0.1,0.176,0.18,0.288,0.24
				c0.112,0.061,0.234,0.091,0.367,0.091c0.07,0,0.141-0.009,0.213-0.027c0.072-0.018,0.143-0.047,0.211-0.086
				c0.068-0.039,0.131-0.09,0.188-0.152c0.058-0.062,0.104-0.137,0.141-0.225l0.513,0.295c-0.049,0.121-0.119,0.228-0.211,0.32
				c-0.092,0.092-0.197,0.17-0.315,0.233c-0.118,0.064-0.242,0.112-0.372,0.145c-0.13,0.033-0.259,0.05-0.386,0.05
				c-0.224,0-0.429-0.048-0.615-0.145c-0.186-0.097-0.346-0.223-0.481-0.379c-0.135-0.155-0.239-0.332-0.313-0.53
				C47.499,50.086,47.462,49.884,47.462,49.678z"/>
			<path fill="#D1D3D4" d="M54.672,48.09v3.222h-0.622v-1.375H52.59v1.375h-0.626V48.09h0.626v1.302h1.461V48.09H54.672z"/>
			<path fill="#D1D3D4" d="M57.24,49.247v2.065h-0.626V48.09h0.485l1.679,2.114v-2.11h0.626v3.217h-0.508L57.24,49.247z"/>
			<path fill="#D1D3D4" d="M62.685,51.334c-0.227,0-0.434-0.046-0.622-0.138c-0.188-0.092-0.349-0.215-0.483-0.367
				c-0.135-0.153-0.238-0.327-0.311-0.524c-0.073-0.196-0.109-0.398-0.109-0.603c0-0.215,0.038-0.421,0.116-0.617
				c0.077-0.197,0.185-0.371,0.322-0.522c0.138-0.151,0.3-0.271,0.488-0.361c0.188-0.089,0.392-0.134,0.613-0.134
				c0.227,0,0.434,0.048,0.621,0.143c0.188,0.095,0.348,0.22,0.481,0.374c0.133,0.154,0.236,0.33,0.309,0.526
				c0.073,0.197,0.109,0.396,0.109,0.599c0,0.215-0.038,0.42-0.116,0.615c-0.077,0.195-0.184,0.367-0.32,0.517
				c-0.136,0.15-0.298,0.269-0.486,0.358C63.109,51.29,62.905,51.334,62.685,51.334z M61.791,49.701c0,0.139,0.02,0.274,0.061,0.403
				c0.041,0.131,0.1,0.245,0.177,0.345c0.077,0.1,0.172,0.18,0.284,0.241c0.112,0.06,0.239,0.09,0.381,0.09
				c0.145,0,0.273-0.031,0.383-0.093c0.111-0.062,0.203-0.145,0.279-0.247c0.076-0.103,0.133-0.219,0.173-0.347
				c0.039-0.128,0.059-0.259,0.059-0.392c0-0.139-0.021-0.274-0.063-0.404c-0.042-0.13-0.102-0.245-0.179-0.345
				c-0.077-0.1-0.171-0.179-0.281-0.238c-0.11-0.059-0.235-0.088-0.374-0.088c-0.145,0-0.273,0.031-0.383,0.093
				c-0.111,0.062-0.204,0.143-0.281,0.245c-0.077,0.102-0.136,0.217-0.175,0.345C61.81,49.437,61.791,49.568,61.791,49.701z"/>
			<path fill="#D1D3D4" d="M65.974,51.312V48.09H66.6v2.672h1.643v0.549H65.974z"/>
			<path fill="#D1D3D4" d="M71.128,51.334c-0.227,0-0.434-0.046-0.621-0.138c-0.188-0.092-0.349-0.215-0.483-0.367
				c-0.135-0.153-0.238-0.327-0.311-0.524c-0.073-0.196-0.109-0.398-0.109-0.603c0-0.215,0.039-0.421,0.116-0.617
				c0.077-0.197,0.184-0.371,0.322-0.522c0.138-0.151,0.3-0.271,0.488-0.361c0.187-0.089,0.392-0.134,0.612-0.134
				c0.227,0,0.434,0.048,0.622,0.143c0.188,0.095,0.348,0.22,0.481,0.374c0.133,0.154,0.236,0.33,0.308,0.526
				c0.073,0.197,0.109,0.396,0.109,0.599c0,0.215-0.039,0.42-0.116,0.615c-0.077,0.195-0.184,0.367-0.32,0.517
				c-0.136,0.15-0.298,0.269-0.486,0.358C71.553,51.29,71.349,51.334,71.128,51.334z M70.234,49.701c0,0.139,0.02,0.274,0.061,0.403
				c0.041,0.131,0.1,0.245,0.177,0.345c0.077,0.1,0.172,0.18,0.284,0.241c0.112,0.06,0.239,0.09,0.381,0.09
				c0.145,0,0.273-0.031,0.384-0.093c0.11-0.062,0.203-0.145,0.279-0.247c0.076-0.103,0.133-0.219,0.173-0.347
				c0.039-0.128,0.059-0.259,0.059-0.392c0-0.139-0.021-0.274-0.064-0.404c-0.042-0.13-0.102-0.245-0.179-0.345
				c-0.077-0.1-0.171-0.179-0.281-0.238c-0.111-0.059-0.235-0.088-0.374-0.088c-0.145,0-0.273,0.031-0.384,0.093
				c-0.11,0.062-0.204,0.143-0.281,0.245c-0.077,0.102-0.136,0.217-0.175,0.345C70.254,49.437,70.234,49.568,70.234,49.701z"/>
			<path fill="#D1D3D4" d="M76.577,50.949c-0.248,0.257-0.534,0.386-0.858,0.386c-0.206,0-0.399-0.045-0.581-0.136
				c-0.182-0.091-0.339-0.212-0.474-0.365c-0.135-0.153-0.24-0.329-0.318-0.529c-0.077-0.2-0.116-0.406-0.116-0.621
				c0-0.221,0.039-0.429,0.116-0.624c0.077-0.195,0.185-0.366,0.322-0.513c0.138-0.146,0.3-0.263,0.485-0.35
				c0.186-0.086,0.388-0.129,0.606-0.129c0.293,0,0.544,0.064,0.753,0.191c0.209,0.127,0.366,0.298,0.472,0.513l-0.467,0.345
				c-0.079-0.161-0.187-0.283-0.324-0.368c-0.138-0.085-0.29-0.127-0.456-0.127c-0.133,0-0.253,0.029-0.361,0.086
				c-0.107,0.058-0.199,0.136-0.274,0.236c-0.076,0.099-0.135,0.215-0.177,0.345c-0.042,0.13-0.064,0.268-0.064,0.413
				c0,0.151,0.023,0.293,0.068,0.424c0.045,0.132,0.109,0.246,0.191,0.343c0.082,0.097,0.178,0.173,0.288,0.229
				c0.111,0.056,0.232,0.084,0.365,0.084c0.296,0,0.564-0.146,0.803-0.44v-0.227h-0.649v-0.459h1.166v1.656h-0.517V50.949z"/>
			<path fill="#D1D3D4" d="M79.086,48.09l0.794,1.551l0.808-1.551h0.676l-1.17,2.096v1.126h-0.622v-1.135l-1.166-2.087H79.086z"/>
			<path fill="#D1D3D4" d="M87.231,51.312l-0.254-0.268c-0.133,0.103-0.277,0.181-0.431,0.233c-0.154,0.053-0.313,0.079-0.476,0.079
				c-0.167,0-0.316-0.026-0.449-0.077c-0.133-0.052-0.247-0.121-0.34-0.209c-0.094-0.088-0.166-0.19-0.218-0.307
				c-0.052-0.116-0.077-0.238-0.077-0.365c0-0.1,0.015-0.192,0.045-0.277c0.03-0.085,0.07-0.163,0.12-0.236
				c0.05-0.073,0.109-0.14,0.177-0.202c0.068-0.062,0.138-0.12,0.211-0.175c-0.064-0.072-0.117-0.138-0.159-0.198
				c-0.042-0.059-0.077-0.115-0.104-0.17c-0.027-0.055-0.047-0.107-0.059-0.159c-0.012-0.051-0.018-0.106-0.018-0.163
				c0-0.115,0.022-0.22,0.066-0.315c0.044-0.095,0.105-0.177,0.184-0.245c0.079-0.068,0.172-0.12,0.279-0.156
				c0.107-0.037,0.225-0.055,0.352-0.055c0.112,0,0.219,0.015,0.322,0.046c0.103,0.03,0.194,0.075,0.274,0.133
				c0.08,0.059,0.143,0.133,0.191,0.222c0.047,0.089,0.07,0.193,0.07,0.311c0,0.175-0.051,0.329-0.154,0.461
				c-0.103,0.131-0.235,0.255-0.395,0.37l0.622,0.649c0.045-0.097,0.081-0.203,0.107-0.32c0.026-0.116,0.039-0.241,0.039-0.374
				h0.495c-0.003,0.214-0.03,0.411-0.08,0.587c-0.05,0.177-0.119,0.337-0.206,0.479l0.667,0.699H87.231z M86.133,50.881
				c0.188,0,0.36-0.061,0.517-0.182l-0.744-0.79c-0.103,0.076-0.185,0.153-0.245,0.231c-0.06,0.079-0.091,0.166-0.091,0.263
				c0,0.064,0.014,0.125,0.041,0.184c0.027,0.059,0.066,0.11,0.116,0.152c0.05,0.042,0.109,0.077,0.179,0.102
				C85.975,50.868,86.051,50.881,86.133,50.881z M85.751,48.803c0,0.052,0.018,0.104,0.054,0.157
				c0.036,0.053,0.104,0.132,0.204,0.238c0.118-0.076,0.209-0.144,0.274-0.207s0.098-0.135,0.098-0.22
				c0-0.081-0.029-0.147-0.086-0.197c-0.058-0.05-0.13-0.075-0.218-0.075c-0.097,0-0.176,0.03-0.236,0.088
				C85.782,48.646,85.751,48.718,85.751,48.803z"/>
			<path fill="#D1D3D4" d="M91.818,49.678c0-0.196,0.035-0.391,0.104-0.583c0.069-0.192,0.17-0.364,0.302-0.515
				c0.131-0.151,0.293-0.274,0.483-0.368c0.191-0.094,0.408-0.14,0.653-0.14c0.287,0,0.536,0.065,0.747,0.195
				c0.21,0.13,0.365,0.3,0.465,0.508l-0.481,0.331c-0.036-0.091-0.083-0.167-0.141-0.229c-0.058-0.062-0.12-0.111-0.188-0.148
				c-0.068-0.036-0.138-0.063-0.211-0.079c-0.073-0.017-0.142-0.025-0.209-0.025c-0.148,0-0.278,0.032-0.39,0.095
				c-0.112,0.064-0.205,0.146-0.279,0.247c-0.074,0.102-0.13,0.216-0.168,0.345c-0.038,0.129-0.056,0.257-0.056,0.383
				c0,0.142,0.022,0.279,0.066,0.411c0.044,0.131,0.106,0.247,0.186,0.347c0.08,0.1,0.176,0.18,0.288,0.24
				c0.112,0.061,0.234,0.091,0.367,0.091c0.07,0,0.141-0.009,0.213-0.027c0.073-0.018,0.143-0.047,0.211-0.086
				c0.068-0.039,0.131-0.09,0.188-0.152c0.057-0.062,0.104-0.137,0.141-0.225l0.513,0.295c-0.048,0.121-0.119,0.228-0.211,0.32
				c-0.092,0.092-0.197,0.17-0.315,0.233c-0.118,0.064-0.242,0.112-0.372,0.145c-0.13,0.033-0.259,0.05-0.386,0.05
				c-0.224,0-0.429-0.048-0.615-0.145c-0.186-0.097-0.346-0.223-0.481-0.379c-0.135-0.155-0.239-0.332-0.313-0.53
				C91.855,50.086,91.818,49.884,91.818,49.678z"/>
			<path fill="#D1D3D4" d="M97.621,51.334c-0.227,0-0.434-0.046-0.621-0.138c-0.188-0.092-0.349-0.215-0.483-0.367
				c-0.135-0.153-0.238-0.327-0.311-0.524c-0.073-0.196-0.109-0.398-0.109-0.603c0-0.215,0.039-0.421,0.116-0.617
				c0.077-0.197,0.184-0.371,0.322-0.522c0.137-0.151,0.3-0.271,0.488-0.361c0.187-0.089,0.392-0.134,0.612-0.134
				c0.227,0,0.434,0.048,0.622,0.143c0.188,0.095,0.348,0.22,0.481,0.374c0.133,0.154,0.236,0.33,0.308,0.526
				c0.073,0.197,0.109,0.396,0.109,0.599c0,0.215-0.039,0.42-0.116,0.615c-0.077,0.195-0.184,0.367-0.32,0.517
				c-0.136,0.15-0.298,0.269-0.486,0.358C98.046,51.29,97.841,51.334,97.621,51.334z M96.727,49.701c0,0.139,0.02,0.274,0.061,0.403
				c0.041,0.131,0.1,0.245,0.177,0.345c0.077,0.1,0.172,0.18,0.284,0.241c0.112,0.06,0.239,0.09,0.381,0.09
				c0.145,0,0.273-0.031,0.384-0.093c0.11-0.062,0.203-0.145,0.279-0.247c0.076-0.103,0.133-0.219,0.173-0.347
				c0.039-0.128,0.059-0.259,0.059-0.392c0-0.139-0.021-0.274-0.064-0.404c-0.042-0.13-0.102-0.245-0.179-0.345
				c-0.077-0.1-0.171-0.179-0.281-0.238c-0.111-0.059-0.235-0.088-0.374-0.088c-0.145,0-0.273,0.031-0.384,0.093
				c-0.11,0.062-0.204,0.143-0.281,0.245c-0.077,0.102-0.136,0.217-0.175,0.345C96.746,49.437,96.727,49.568,96.727,49.701z"/>
			<path fill="#D1D3D4" d="M103.537,51.312v-2.133l-0.83,1.588h-0.34l-0.83-1.588v2.133h-0.626V48.09h0.672l0.953,1.833l0.962-1.833
				h0.667v3.222H103.537z"/>
			<path fill="#D1D3D4" d="M108.732,51.312v-2.133l-0.83,1.588h-0.34l-0.83-1.588v2.133h-0.626V48.09h0.672l0.953,1.833l0.962-1.833
				h0.667v3.222H108.732z"/>
			<path fill="#D1D3D4" d="M112.657,50.781c0.148,0,0.273-0.03,0.374-0.09c0.101-0.061,0.183-0.14,0.245-0.236
				c0.062-0.097,0.106-0.208,0.132-0.334c0.026-0.125,0.038-0.254,0.038-0.388V48.09h0.622v1.643c0,0.221-0.026,0.428-0.079,0.622
				c-0.053,0.193-0.136,0.363-0.249,0.508c-0.114,0.145-0.26,0.26-0.438,0.345c-0.179,0.085-0.392,0.127-0.64,0.127
				c-0.257,0-0.476-0.045-0.656-0.134c-0.18-0.089-0.326-0.207-0.438-0.354c-0.112-0.146-0.193-0.316-0.243-0.51
				c-0.05-0.193-0.075-0.394-0.075-0.603V48.09h0.626v1.643c0,0.136,0.013,0.267,0.038,0.392c0.026,0.126,0.07,0.237,0.132,0.333
				c0.062,0.097,0.143,0.175,0.243,0.234C112.389,50.751,112.512,50.781,112.657,50.781z"/>
			<path fill="#D1D3D4" d="M116.59,49.247v2.065h-0.626V48.09h0.486l1.679,2.114v-2.11h0.626v3.217h-0.508L116.59,49.247z"/>
			<path fill="#D1D3D4" d="M120.696,51.312v-3.217h0.626v3.217H120.696z"/>
			<path fill="#D1D3D4" d="M123.074,49.678c0-0.196,0.035-0.391,0.104-0.583c0.069-0.192,0.17-0.364,0.302-0.515
				c0.131-0.151,0.293-0.274,0.483-0.368c0.191-0.094,0.408-0.14,0.653-0.14c0.287,0,0.536,0.065,0.746,0.195
				c0.21,0.13,0.365,0.3,0.465,0.508l-0.481,0.331c-0.036-0.091-0.083-0.167-0.141-0.229c-0.058-0.062-0.12-0.111-0.188-0.148
				c-0.068-0.036-0.138-0.063-0.211-0.079c-0.073-0.017-0.142-0.025-0.209-0.025c-0.148,0-0.278,0.032-0.39,0.095
				c-0.112,0.064-0.205,0.146-0.279,0.247c-0.074,0.102-0.13,0.216-0.168,0.345c-0.038,0.129-0.057,0.257-0.057,0.383
				c0,0.142,0.022,0.279,0.066,0.411c0.044,0.131,0.106,0.247,0.186,0.347c0.08,0.1,0.176,0.18,0.288,0.24
				c0.112,0.061,0.234,0.091,0.367,0.091c0.07,0,0.141-0.009,0.213-0.027c0.073-0.018,0.143-0.047,0.211-0.086
				c0.068-0.039,0.131-0.09,0.188-0.152c0.057-0.062,0.104-0.137,0.141-0.225l0.513,0.295c-0.048,0.121-0.119,0.228-0.211,0.32
				c-0.092,0.092-0.197,0.17-0.315,0.233c-0.118,0.064-0.242,0.112-0.372,0.145c-0.13,0.033-0.259,0.05-0.386,0.05
				c-0.224,0-0.429-0.048-0.615-0.145c-0.186-0.097-0.346-0.223-0.481-0.379c-0.135-0.155-0.239-0.332-0.313-0.53
				C123.111,50.086,123.074,49.884,123.074,49.678z"/>
			<path fill="#D1D3D4" d="M127.203,51.312l1.27-3.222h0.508l1.266,3.222h-0.662l-0.295-0.803h-1.13l-0.295,0.803H127.203z
				 M128.727,48.767l-0.463,1.302h0.912L128.727,48.767z"/>
			<path fill="#D1D3D4" d="M133.972,48.639h-1.025v2.672h-0.626v-2.672h-1.03V48.09h2.681V48.639z"/>
			<path fill="#D1D3D4" d="M135.647,51.312v-3.217h0.626v3.217H135.647z"/>
			<path fill="#D1D3D4" d="M139.553,51.334c-0.227,0-0.435-0.046-0.622-0.138c-0.188-0.092-0.349-0.215-0.483-0.367
				c-0.135-0.153-0.238-0.327-0.311-0.524c-0.072-0.196-0.108-0.398-0.108-0.603c0-0.215,0.039-0.421,0.115-0.617
				c0.077-0.197,0.184-0.371,0.323-0.522c0.137-0.151,0.3-0.271,0.488-0.361c0.187-0.089,0.392-0.134,0.612-0.134
				c0.227,0,0.434,0.048,0.622,0.143c0.188,0.095,0.348,0.22,0.481,0.374c0.133,0.154,0.236,0.33,0.308,0.526
				c0.073,0.197,0.109,0.396,0.109,0.599c0,0.215-0.039,0.42-0.116,0.615c-0.077,0.195-0.183,0.367-0.32,0.517
				c-0.136,0.15-0.298,0.269-0.486,0.358C139.978,51.29,139.774,51.334,139.553,51.334z M138.659,49.701
				c0,0.139,0.02,0.274,0.061,0.403c0.041,0.131,0.1,0.245,0.178,0.345c0.077,0.1,0.171,0.18,0.283,0.241
				c0.112,0.06,0.239,0.09,0.381,0.09c0.145,0,0.273-0.031,0.383-0.093s0.203-0.145,0.279-0.247
				c0.075-0.103,0.133-0.219,0.173-0.347c0.039-0.128,0.059-0.259,0.059-0.392c0-0.139-0.021-0.274-0.064-0.404
				c-0.043-0.13-0.102-0.245-0.18-0.345c-0.077-0.1-0.171-0.179-0.281-0.238c-0.111-0.059-0.235-0.088-0.374-0.088
				c-0.145,0-0.273,0.031-0.383,0.093c-0.111,0.062-0.204,0.143-0.281,0.245c-0.077,0.102-0.135,0.217-0.175,0.345
				C138.679,49.437,138.659,49.568,138.659,49.701z"/>
			<path fill="#D1D3D4" d="M143.468,49.247v2.065h-0.626V48.09h0.486l1.679,2.114v-2.11h0.626v3.217h-0.508L143.468,49.247z"/>
		</g>
	</g>
</g>
</svg>
