<?xml version="1.0" encoding="iso-8859-1"?>
<!-- Generator: Adobe Illustrator 19.0.0, SVG Export Plug-In . SVG Version: 6.00 Build 0)  -->
<svg version="1.1" id="Capa_1" xmlns="http://www.w3.org/2000/svg" xmlns:xlink="http://www.w3.org/1999/xlink" x="0px" y="0px"
	 viewBox="0 0 504.686 504.686" style="enable-background:new 0 0 504.686 504.686;" xml:space="preserve">
<g>
	<g>
		<path d="M446.172,149.943c-5.689-31.695-31.695-56.889-64.203-60.14c-21.13-53.638-72.33-89.397-130.032-89.397
			c-43.073,0-83.708,20.318-109.714,53.638C56.889,27.225,16.254,115.81,38.197,159.695C14.629,174.324,0,200.33,0,227.962
			c0,44.698,36.571,81.27,81.27,81.27v-16.254c-35.759,0-65.016-29.257-65.016-65.016c0-45.511,43.073-61.765,43.073-61.765
			c-35.759-56.889,26.006-126.781,88.584-91.835c0,0,39.822-66.641,117.029-57.702c86.959,10.565,104.838,89.397,104.838,89.397
			c45.511-0.813,62.578,36.571,61.765,56.889c0,0,53.638,7.314,56.889,65.016c1.625,35.759-30.07,65.016-65.016,65.016v16.254
			c44.698,0,81.27-36.571,81.27-81.27C503.873,192.203,479.492,160.508,446.172,149.943z"/>
	</g>
</g>
<g>
	<g>
		<path d="M89.397,423.01v81.27h325.079v-81.27H89.397z M398.222,488.025H105.651v-48.762h292.571V488.025z"/>
	</g>
</g>
<g>
	<g>
		<path d="M89.397,333.613v81.27h325.079v-81.27H89.397z M398.222,398.629H105.651v-48.762h292.571V398.629z"/>
	</g>
</g>
<g>
	<g>
		<path d="M89.397,244.216v81.27h325.079v-81.27H89.397z M398.222,309.232H105.651V260.47h292.571V309.232z"/>
	</g>
</g>
<g>
	<g>
		<rect x="121.905" y="455.517" width="16.254" height="16.254"/>
	</g>
</g>
<g>
	<g>
		<rect x="154.413" y="455.517" width="16.254" height="16.254"/>
	</g>
</g>
<g>
	<g>
		<rect x="186.921" y="455.517" width="16.254" height="16.254"/>
	</g>
</g>
<g>
	<g>
		<rect x="276.318" y="455.517" width="105.651" height="16.254"/>
	</g>
</g>
<g>
	<g>
		<rect x="121.905" y="366.121" width="16.254" height="16.254"/>
	</g>
</g>
<g>
	<g>
		<rect x="154.413" y="366.121" width="16.254" height="16.254"/>
	</g>
</g>
<g>
	<g>
		<rect x="186.921" y="366.121" width="16.254" height="16.254"/>
	</g>
</g>
<g>
	<g>
		<rect x="276.318" y="366.121" width="105.651" height="16.254"/>
	</g>
</g>
<g>
	<g>
		<rect x="121.905" y="276.724" width="16.254" height="16.254"/>
	</g>
</g>
<g>
	<g>
		<rect x="154.413" y="276.724" width="16.254" height="16.254"/>
	</g>
</g>
<g>
	<g>
		<rect x="186.921" y="276.724" width="16.254" height="16.254"/>
	</g>
</g>
<g>
	<g>
		<rect x="276.318" y="276.724" width="105.651" height="16.254"/>
	</g>
</g>
<g>
	<g>
		<path d="M316.952,106.057H186.921c-13.816,0-24.381,10.565-24.381,24.381v65.016c0,13.816,10.565,24.381,24.381,24.381h38.197
			l26.819,17.879l26.819-17.879h38.197c13.816,0,24.381-10.565,24.381-24.381v-65.016
			C341.333,116.622,330.768,106.057,316.952,106.057z M325.079,195.454c0,4.876-3.251,8.127-8.127,8.127h-43.073l-21.943,14.629
			l-21.943-14.629h-43.073c-4.876,0-8.127-3.251-8.127-8.127v-65.016c0-4.876,3.251-8.127,8.127-8.127h130.032
			c4.876,0,8.127,3.251,8.127,8.127V195.454z"/>
	</g>
</g>
<g>
	<g>
		<rect x="211.302" y="154.819" width="16.254" height="16.254"/>
	</g>
</g>
<g>
	<g>
		<rect x="243.81" y="154.819" width="16.254" height="16.254"/>
	</g>
</g>
<g>
	<g>
		<rect x="276.318" y="154.819" width="16.254" height="16.254"/>
	</g>
</g>
<g>
</g>
<g>
</g>
<g>
</g>
<g>
</g>
<g>
</g>
<g>
</g>
<g>
</g>
<g>
</g>
<g>
</g>
<g>
</g>
<g>
</g>
<g>
</g>
<g>
</g>
<g>
</g>
<g>
</g>
</svg>
