<?xml version="1.0" encoding="utf-8"?>
<!-- Generator: Adobe Illustrator 16.0.0, SVG Export Plug-In . SVG Version: 6.00 Build 0)  -->
<!DOCTYPE svg PUBLIC "-//W3C//DTD SVG 1.1//EN" "http://www.w3.org/Graphics/SVG/1.1/DTD/svg11.dtd">
<svg version="1.1" id="Layer_1" xmlns="http://www.w3.org/2000/svg" xmlns:xlink="http://www.w3.org/1999/xlink" x="0px" y="0px"
	 width="94px" height="146px" viewBox="0 0 94 146" enable-background="new 0 0 94 146" xml:space="preserve">
<g>
	<defs>
		<rect id="SVGID_1_" width="94" height="146"/>
	</defs>
	<clipPath id="SVGID_2_">
		<use xlink:href="#SVGID_1_"  overflow="visible"/>
	</clipPath>
	<path clip-path="url(#SVGID_2_)" fill="#FFCB0A" d="M54.903,34.446c0,0,7.911-3.371,7.918-12.638
		C62.823,13.57,54.917,9.16,54.917,9.16S47.003,13.074,47,21.801C46.994,31.189,54.903,34.446,54.903,34.446"/>
	<path clip-path="url(#SVGID_2_)" fill="#EB2227" d="M57.356,51.396c0,0,9.377,2.91,16.27-5.135
		c6.127-7.153,2.536-16.817,2.536-16.817S66.382,27,59.892,34.578C52.907,42.729,57.356,51.396,57.356,51.396"/>
	<path clip-path="url(#SVGID_2_)" fill="#3BB34A" d="M20.442,25.015c0,0-4.179,13.365,7.371,23.188
		c10.264,8.733,24.141,3.616,24.141,3.616s3.505-13.939-7.372-23.194C32.881,18.674,20.442,25.015,20.442,25.015"/>
	<path clip-path="url(#SVGID_2_)" fill="#D1D2D3" d="M32.662,12.684c0,0-1.527,4.886,2.692,8.475
		c3.752,3.19,8.821,1.321,8.821,1.321s1.281-5.094-2.692-8.475C37.206,10.369,32.662,12.684,32.662,12.684"/>
	<path clip-path="url(#SVGID_2_)" fill="#0C72BA" d="M45.909,0c0,0-4.144,1.831-4.083,6.709c0.054,4.339,4.247,6.608,4.247,6.608
		s4.141-2.113,4.083-6.709C50.095,1.664,45.909,0,45.909,0"/>
	<path clip-path="url(#SVGID_2_)" fill="#231F20" d="M12.679,89.175c0,2.43,0.468,4.739,1.401,6.925
		c0.935,2.188,2.216,4.092,3.842,5.713c1.624,1.616,3.536,2.896,5.729,3.825c2.194,0.933,4.568,1.424,6.951,1.398
		c1.188,3.313,4.512,8.94,8.781,12.048c-7.675,1.933-16.827-0.201-20.487-1.781c-3.657-1.583-6.869-3.707-9.631-6.378
		c-2.764-2.676-4.979-5.835-6.645-9.479C0.953,97.802,0.077,93.914,0,89.781V44.782l12.679-12.757v26.9H41.57
		c-5.319,4.333-8.652,7.847-11.213,12.634c-7.335,0-17.679,0.001-17.679,0.001v16.037V89.175z"/>
	<path clip-path="url(#SVGID_2_)" fill="#231F20" d="M93.999,133.365L81.32,146V89.54v-0.239c0-2.435-0.466-4.722-1.401-6.871
		c-0.936-2.142-2.195-4.021-3.78-5.646c-1.584-1.621-3.475-2.893-5.669-3.825c-2.195-0.932-4.512-1.398-6.951-1.398
		c-2.438-0.001-4.754,0.466-6.948,1.398c-2.193,0.933-4.104,2.204-5.73,3.825c-1.629,1.624-2.906,3.504-3.841,5.646
		c-0.935,2.149-1.4,4.437-1.4,6.871c0,2.508,0.466,4.856,1.4,7.044c0.935,2.186,2.212,4.092,3.841,5.708
		c1.626,1.621,3.537,2.897,5.73,3.829c2.194,0.929,4.514,1.261,6.948,1.396c2.353,0.129,7.59-0.595,9.463-1.833v12.974
		c-1.141,0.406-4.484,1.049-5.742,1.131c-1.262,0.081-2.499,0.122-3.721,0.122c-3.899,0-7.6-0.688-11.094-2.068
		c-3.496-1.372-6.604-3.277-9.325-5.708c-2.725-2.432-4.96-5.265-6.709-8.503c-1.748-3.24-2.823-6.722-3.231-10.447
		c-0.162-0.566-0.241-1.154-0.241-1.765V89.3c0-4.133,0.791-8.062,2.376-11.787c1.586-3.726,3.76-6.962,6.525-9.719
		c2.762-2.751,6.013-4.939,9.75-6.563c3.739-1.617,7.725-2.427,11.949-2.427c4.228,0,8.19,0.81,11.889,2.427
		c3.698,1.625,6.93,3.812,9.692,6.564c2.764,2.756,4.939,5.993,6.523,9.718c1.587,3.726,2.376,7.654,2.376,11.787v0.241V133.365z"/>
</g>
</svg>
